<?xml version="1.0" encoding="UTF-8" standalone="no"?>
<!-- Created with Inkscape (http://www.inkscape.org/) -->

<svg
   xmlns:dc="http://purl.org/dc/elements/1.1/"
   xmlns:cc="http://creativecommons.org/ns#"
   xmlns:rdf="http://www.w3.org/1999/02/22-rdf-syntax-ns#"
   xmlns:svg="http://www.w3.org/2000/svg"
   xmlns="http://www.w3.org/2000/svg"
   xmlns:xlink="http://www.w3.org/1999/xlink"
   xmlns:sodipodi="http://sodipodi.sourceforge.net/DTD/sodipodi-0.dtd"
   xmlns:inkscape="http://www.inkscape.org/namespaces/inkscape"
   width="210mm"
   height="297mm"
   viewBox="0 0 744.09448819 1052.3622047"
   id="svg2"
   version="1.1"
   inkscape:version="0.91 r13725"
   sodipodi:docname="generator1.svg"
   inkscape:export-filename="/home/davidg/Projects/Games/Turret-Command/assets/images/generator1.png"
   inkscape:export-xdpi="35"
   inkscape:export-ydpi="35">
  <defs
     id="defs4">
    <linearGradient
       id="linearGradient4264"
       inkscape:collect="always">
      <stop
         id="stop4266"
         offset="0"
         style="stop-color:#969696;stop-opacity:1" />
      <stop
         style="stop-color:#dadada;stop-opacity:1"
         offset="0.11171661"
         id="stop4268" />
      <stop
         id="stop4270"
         offset="1"
         style="stop-color:#969696;stop-opacity:1" />
    </linearGradient>
    <linearGradient
       id="linearGradient4244"
       inkscape:collect="always">
      <stop
         id="stop4246"
         offset="0"
         style="stop-color:#00ff00;stop-opacity:0.21176471" />
      <stop
         id="stop4250"
         offset="1"
         style="stop-color:#00ff00;stop-opacity:0.89411765" />
    </linearGradient>
    <linearGradient
       inkscape:collect="always"
       id="linearGradient4226">
      <stop
         style="stop-color:#00ff00;stop-opacity:0.75252527"
         offset="0"
         id="stop4228" />
      <stop
         id="stop4234"
         offset="0.11171661"
         style="stop-color:#00ff00;stop-opacity:0.30808082" />
      <stop
         style="stop-color:#00ff00;stop-opacity:0.89411765"
         offset="1"
         id="stop4230" />
    </linearGradient>
    <linearGradient
       inkscape:collect="always"
       xlink:href="#linearGradient4226"
       id="linearGradient4232"
       x1="350.35715"
       y1="298.96936"
       x2="481.42856"
       y2="298.96936"
       gradientUnits="userSpaceOnUse" />
    <radialGradient
       inkscape:collect="always"
       xlink:href="#linearGradient4244"
       id="radialGradient4242"
       cx="386.46558"
       cy="219.89784"
       fx="386.46558"
       fy="219.89784"
       r="65.940514"
       gradientTransform="matrix(2.180718,-1.9829737e-7,6.642173e-8,0.73045376,-453.21296,32.260708)"
       gradientUnits="userSpaceOnUse" />
    <linearGradient
       inkscape:collect="always"
       xlink:href="#linearGradient4264"
       id="linearGradient4254"
       gradientUnits="userSpaceOnUse"
       x1="350.35715"
       y1="298.96936"
       x2="481.42856"
       y2="298.96936"
       gradientTransform="translate(0,76.428579)" />
  </defs>
  <sodipodi:namedview
     id="base"
     pagecolor="#ffffff"
     bordercolor="#666666"
     borderopacity="1.0"
     inkscape:pageopacity="0.0"
     inkscape:pageshadow="2"
     inkscape:zoom="1.979899"
     inkscape:cx="293.37445"
     inkscape:cy="759.01672"
     inkscape:document-units="px"
     inkscape:current-layer="layer1"
     showgrid="false"
     showborder="false"
     inkscape:window-width="1600"
     inkscape:window-height="871"
     inkscape:window-x="0"
     inkscape:window-y="0"
     inkscape:window-maximized="1" />
  <metadata
     id="metadata7">
    <rdf:RDF>
      <cc:Work
         rdf:about="">
        <dc:format>image/svg+xml</dc:format>
        <dc:type
           rdf:resource="http://purl.org/dc/dcmitype/StillImage" />
        <dc:title />
      </cc:Work>
    </rdf:RDF>
  </metadata>
  <g
     inkscape:label="Layer 1"
     inkscape:groupmode="layer"
     id="layer1">
    <ellipse
       ry="22.165071"
       rx="65.653381"
       cy="364.58804"
       cx="415.98807"
       id="ellipse4147"
       style="fill:#808080;fill-opacity:1;fill-rule:evenodd;stroke:#000000;stroke-width:0.57425952;stroke-miterlimit:4;stroke-dasharray:none;stroke-opacity:1" />
    <path
       style="fill:url(#linearGradient4232);fill-opacity:1;fill-rule:evenodd;stroke:#000000;stroke-width:0.57425952;stroke-miterlimit:4;stroke-dasharray:none;stroke-opacity:1"
       d="m 350.33478,174.16662 0,0.14858 a 65.653379,22.165071 0 0 1 0.0219,-0.14858 l -0.0219,0 z m 0,0.14858 0,190.19062 a 65.653379,22.165071 0 0 0 65.6532,22.16479 65.653379,22.165071 0 0 0 65.65319,-22.16479 65.653379,22.165071 0 0 0 -0.003,-0.0313 l 0,-190.13783 A 65.653379,22.165071 0 0 1 415.98798,196.48 65.653379,22.165071 0 0 1 350.33478,174.3152 Z m 131.29094,-0.14858 a 65.653379,22.165071 0 0 1 0.0122,0.1173 l 0,-0.1173 -0.0122,0 z"
       id="ellipse4138"
       inkscape:connector-curvature="0" />
    <ellipse
       style="fill:url(#radialGradient4242);fill-opacity:1;fill-rule:evenodd;stroke:#000000;stroke-width:0.57425952;stroke-miterlimit:4;stroke-dasharray:none;stroke-opacity:1"
       id="path4136"
       cx="415.98807"
       cy="174.31441"
       rx="65.653381"
       ry="22.165071" />
    <path
       style="fill:url(#linearGradient4254);fill-opacity:1.0;fill-rule:evenodd;stroke:#000000;stroke-width:0.57425952;stroke-miterlimit:4;stroke-dasharray:none;stroke-opacity:1"
       d="M 350.33398 364.50586 L 350.33398 364.58789 A 65.653381 22.165071 0 0 1 350.33984 364.54688 A 65.653379 22.165071 0 0 1 350.33398 364.50586 z M 350.33398 364.58789 L 350.33398 440.93359 A 65.653379 22.165071 0 0 0 415.98828 463.09961 A 65.653379 22.165071 0 0 0 481.64062 440.93359 A 65.653379 22.165071 0 0 0 481.63867 440.90234 L 481.63867 364.60156 A 65.653381 22.165071 0 0 1 481.61133 364.78516 A 65.653379 22.165071 0 0 1 481.38086 366.33984 A 65.653381 22.165071 0 0 1 480.81641 367.91016 A 65.653379 22.165071 0 0 1 480.58789 368.41992 A 65.653381 22.165071 0 0 1 479.30273 370.35352 A 65.653379 22.165071 0 0 1 479.2168 370.46875 A 65.653381 22.165071 0 0 1 415.98828 386.75391 A 65.653381 22.165071 0 0 1 351.75391 369.05664 A 65.653379 22.165071 0 0 1 351.61719 368.84961 A 65.653381 22.165071 0 0 1 350.86133 367.16211 A 65.653379 22.165071 0 0 1 350.63477 366.5293 A 65.653381 22.165071 0 0 1 350.33398 364.58789 z M 481.63867 364.52734 A 65.653379 22.165071 0 0 1 481.63672 364.54688 A 65.653381 22.165071 0 0 1 481.63867 364.56641 L 481.63867 364.52734 z "
       id="path4252" />
  </g>
</svg>
