<?xml version="1.0" encoding="UTF-8" standalone="no"?>
<!-- Created with Inkscape (http://www.inkscape.org/) -->

<svg
   xmlns:dc="http://purl.org/dc/elements/1.1/"
   xmlns:cc="http://creativecommons.org/ns#"
   xmlns:rdf="http://www.w3.org/1999/02/22-rdf-syntax-ns#"
   xmlns:svg="http://www.w3.org/2000/svg"
   xmlns="http://www.w3.org/2000/svg"
   xmlns:xlink="http://www.w3.org/1999/xlink"
   xmlns:sodipodi="http://sodipodi.sourceforge.net/DTD/sodipodi-0.dtd"
   xmlns:inkscape="http://www.inkscape.org/namespaces/inkscape"
   width="210mm"
   height="297mm"
   viewBox="0 0 744.09448819 1052.3622047"
   id="svg2"
   version="1.1"
   inkscape:version="0.91 r13725"
   sodipodi:docname="generator2.svg"
   inkscape:export-filename="/home/davidg/Projects/Games/Turret-Command/assets/images/generator2.png"
   inkscape:export-xdpi="35"
   inkscape:export-ydpi="35">
  <defs
     id="defs4">
    <linearGradient
       id="linearGradient4264"
       inkscape:collect="always">
      <stop
         id="stop4266"
         offset="0"
         style="stop-color:#969696;stop-opacity:1" />
      <stop
         style="stop-color:#dadada;stop-opacity:1"
         offset="0.11171661"
         id="stop4268" />
      <stop
         id="stop4270"
         offset="1"
         style="stop-color:#969696;stop-opacity:1" />
    </linearGradient>
    <linearGradient
       id="linearGradient4244"
       inkscape:collect="always">
      <stop
         id="stop4246"
         offset="0"
         style="stop-color:#00ff00;stop-opacity:0.21176471" />
      <stop
         id="stop4250"
         offset="1"
         style="stop-color:#00ff00;stop-opacity:0.89411765" />
    </linearGradient>
    <linearGradient
       inkscape:collect="always"
       id="linearGradient4226">
      <stop
         style="stop-color:#00ff00;stop-opacity:0.75252527"
         offset="0"
         id="stop4228" />
      <stop
         id="stop4234"
         offset="0.11171661"
         style="stop-color:#00ff00;stop-opacity:0.30808082" />
      <stop
         style="stop-color:#00ff00;stop-opacity:0.89411765"
         offset="1"
         id="stop4230" />
    </linearGradient>
    <linearGradient
       inkscape:collect="always"
       xlink:href="#linearGradient4226"
       id="linearGradient4232"
       x1="350.35715"
       y1="298.96936"
       x2="481.42856"
       y2="298.96936"
       gradientUnits="userSpaceOnUse"
       gradientTransform="translate(-624.27427,-96.974644)" />
    <radialGradient
       inkscape:collect="always"
       xlink:href="#linearGradient4244"
       id="radialGradient4242"
       cx="386.46558"
       cy="219.89784"
       fx="386.46558"
       fy="219.89784"
       r="65.940514"
       gradientTransform="matrix(2.180718,-1.9829737e-7,6.642173e-8,0.73045376,-1077.4872,-64.713936)"
       gradientUnits="userSpaceOnUse" />
    <linearGradient
       inkscape:collect="always"
       xlink:href="#linearGradient4264"
       id="linearGradient4254"
       gradientUnits="userSpaceOnUse"
       x1="350.35715"
       y1="298.96936"
       x2="481.42856"
       y2="298.96936"
       gradientTransform="translate(-624.27427,-20.546065)" />
  </defs>
  <sodipodi:namedview
     id="base"
     pagecolor="#ffffff"
     bordercolor="#666666"
     borderopacity="1.0"
     inkscape:pageopacity="0.0"
     inkscape:pageshadow="2"
     inkscape:zoom="1.4"
     inkscape:cx="-341.09164"
     inkscape:cy="879.55591"
     inkscape:document-units="px"
     inkscape:current-layer="layer1"
     showgrid="false"
     showborder="false"
     inkscape:window-width="1600"
     inkscape:window-height="871"
     inkscape:window-x="0"
     inkscape:window-y="0"
     inkscape:window-maximized="1" />
  <metadata
     id="metadata7">
    <rdf:RDF>
      <cc:Work
         rdf:about="">
        <dc:format>image/svg+xml</dc:format>
        <dc:type
           rdf:resource="http://purl.org/dc/dcmitype/StillImage" />
        <dc:title />
      </cc:Work>
    </rdf:RDF>
  </metadata>
  <g
     inkscape:label="Layer 1"
     inkscape:groupmode="layer"
     id="layer1">
    <ellipse
       ry="22.165071"
       rx="65.653381"
       cy="267.6134"
       cx="-208.28621"
       id="ellipse4147"
       style="fill:#808080;fill-opacity:1;fill-rule:evenodd;stroke:#000000;stroke-width:0.57425952;stroke-miterlimit:4;stroke-dasharray:none;stroke-opacity:1" />
    <path
       style="fill:url(#linearGradient4232);fill-opacity:1;fill-rule:evenodd;stroke:#000000;stroke-width:0.57425952;stroke-miterlimit:4;stroke-dasharray:none;stroke-opacity:1"
       d="m -273.93949,77.191976 0,0.14858 a 65.653379,22.165071 0 0 1 0.0219,-0.14858 l -0.0219,0 z m 0,0.14858 0,190.190624 a 65.653379,22.165071 0 0 0 65.6532,22.16479 65.653379,22.165071 0 0 0 65.65319,-22.16479 65.653379,22.165071 0 0 0 -0.003,-0.0313 l 0,-190.137834 a 65.653379,22.165071 0 0 1 -65.65019,22.14331 65.653379,22.165071 0 0 1 -65.6532,-22.1648 z m 131.29094,-0.14858 a 65.653379,22.165071 0 0 1 0.0122,0.1173 l 0,-0.1173 -0.0122,0 z"
       id="ellipse4138"
       inkscape:connector-curvature="0" />
    <ellipse
       style="fill:url(#radialGradient4242);fill-opacity:1;fill-rule:evenodd;stroke:#000000;stroke-width:0.57425952;stroke-miterlimit:4;stroke-dasharray:none;stroke-opacity:1"
       id="path4136"
       cx="-208.28621"
       cy="77.33976"
       rx="65.653381"
       ry="22.165071" />
    <path
       style="fill:url(#linearGradient4254);fill-opacity:1;fill-rule:evenodd;stroke:#000000;stroke-width:0.57425952;stroke-miterlimit:4;stroke-dasharray:none;stroke-opacity:1"
       d="m -273.94029,267.53122 0,0.082 a 65.653381,22.165071 0 0 1 0.006,-0.041 65.653379,22.165071 0 0 1 -0.006,-0.041 z m 0,0.082 0,76.3457 a 65.653379,22.165071 0 0 0 65.6543,22.16602 65.653379,22.165071 0 0 0 65.65234,-22.16602 65.653379,22.165071 0 0 0 -0.002,-0.0312 l 0,-76.30078 a 65.653381,22.165071 0 0 1 -0.0273,0.1836 65.653379,22.165071 0 0 1 -0.23047,1.55468 65.653381,22.165071 0 0 1 -0.56445,1.57032 65.653379,22.165071 0 0 1 -0.22852,0.50976 65.653381,22.165071 0 0 1 -1.28516,1.9336 65.653379,22.165071 0 0 1 -0.0859,0.11523 65.653381,22.165071 0 0 1 -63.22852,16.28516 65.653381,22.165071 0 0 1 -64.23437,-17.69727 65.653379,22.165071 0 0 1 -0.13672,-0.20703 65.653381,22.165071 0 0 1 -0.75586,-1.6875 65.653379,22.165071 0 0 1 -0.22656,-0.63281 65.653381,22.165071 0 0 1 -0.30079,-1.94141 z m 131.30469,-0.0605 a 65.653379,22.165071 0 0 1 -0.002,0.0195 65.653381,22.165071 0 0 1 0.002,0.0195 l 0,-0.0391 z"
       id="path4252"
       inkscape:connector-curvature="0" />
    <path
       style="fill:none;fill-rule:evenodd;stroke:#000000;stroke-width:1px;stroke-linecap:butt;stroke-linejoin:miter;stroke-opacity:1"
       d="m -273.9525,185.1345 4.88606,1.83467 3.00646,5.94756 4.01626,-5.17857"
       id="path4961"
       inkscape:connector-curvature="0"
       sodipodi:nodetypes="cccc" />
    <path
       style="fill:none;fill-rule:evenodd;stroke:#000000;stroke-width:1px;stroke-linecap:butt;stroke-linejoin:miter;stroke-opacity:1"
       d="m -247.8457,131.45899 4.23879,4.0668 -2.12129,5.40106 4.66822,12.675"
       id="path4963"
       inkscape:connector-curvature="0"
       sodipodi:nodetypes="cccc" />
    <path
       sodipodi:nodetypes="cccc"
       inkscape:connector-curvature="0"
       id="path4965"
       d="m -142.81334,202.00387 -11.38621,-3.16535 -2.47844,11.82964 -6.93892,-0.53929"
       style="fill:none;fill-rule:evenodd;stroke:#000000;stroke-width:1px;stroke-linecap:butt;stroke-linejoin:miter;stroke-opacity:1" />
    <path
       style="fill:none;fill-rule:evenodd;stroke:#000000;stroke-width:1px;stroke-linecap:butt;stroke-linejoin:miter;stroke-opacity:1"
       d="m -174.86144,286.92548 -4.23224,-6.21548 6.23555,-3.61798 -10.02501,-19.87777"
       id="path4967"
       inkscape:connector-curvature="0"
       sodipodi:nodetypes="cccc" />
    <path
       sodipodi:nodetypes="cccc"
       inkscape:connector-curvature="0"
       id="path4969"
       d="m -172.38645,59.051956 -1.51107,4.55239 -11.0016,-1.23921 13.70607,15.24434"
       style="fill:none;fill-rule:evenodd;stroke:#000000;stroke-width:1;stroke-linecap:butt;stroke-linejoin:miter;stroke-miterlimit:0;stroke-dasharray:none;stroke-opacity:1" />
    <path
       sodipodi:nodetypes="cccc"
       inkscape:connector-curvature="0"
       id="path4971"
       d="m -247.8457,131.45899 4.23879,4.0668 -2.12129,5.40106 4.66822,12.675"
       style="fill:none;fill-rule:evenodd;stroke:#000000;stroke-width:1px;stroke-linecap:butt;stroke-linejoin:miter;stroke-opacity:1" />
    <path
       style="fill:none;fill-rule:evenodd;stroke:#000000;stroke-width:1px;stroke-linecap:butt;stroke-linejoin:miter;stroke-opacity:1"
       d="m -241.27971,153.2404 20.65377,-0.47888 0.65663,29.13964 -9.79076,21.3664 1.7058,16.30988"
       id="path4973"
       inkscape:connector-curvature="0"
       sodipodi:nodetypes="ccccc" />
    <path
       sodipodi:nodetypes="cccc"
       inkscape:connector-curvature="0"
       id="path4975"
       d="m -262.58828,187.91242 21.67984,0.69825 10.07753,11.5034 0.9858,3.53399"
       style="fill:none;fill-rule:evenodd;stroke:#000000;stroke-width:1px;stroke-linecap:butt;stroke-linejoin:miter;stroke-opacity:1" />
    <path
       style="fill:none;fill-rule:evenodd;stroke:#000000;stroke-width:1px;stroke-linecap:butt;stroke-linejoin:miter;stroke-opacity:1"
       d="m -163.43834,210.15119 -1.4755,18.15162 -19.46022,-21.81005 -3.40338,-28.31849"
       id="path4977"
       inkscape:connector-curvature="0"
       sodipodi:nodetypes="cccc" />
    <path
       sodipodi:nodetypes="cccc"
       inkscape:connector-curvature="0"
       id="path4979"
       d="m -182.89716,257.77369 7.19633,-5.14405 -5.19302,-4.68941 -10.02501,-19.87777"
       style="fill:none;fill-rule:evenodd;stroke:#000000;stroke-width:1px;stroke-linecap:butt;stroke-linejoin:miter;stroke-opacity:1" />
    <path
       style="fill:none;fill-rule:evenodd;stroke:#000000;stroke-width:1;stroke-linecap:butt;stroke-linejoin:miter;stroke-miterlimit:0;stroke-dasharray:none;stroke-opacity:1"
       d="m -171.49359,77.08767 -14.18964,0.266676 26.14126,7.153647 -12.96421,6.304936"
       id="path4981"
       inkscape:connector-curvature="0"
       sodipodi:nodetypes="cccc" />
    <path
       sodipodi:nodetypes="cccc"
       inkscape:connector-curvature="0"
       id="path4983"
       d="m -257.09627,62.433652 0.52018,4.920694 16.94483,4.475076 0.33937,14.34065"
       style="fill:none;fill-rule:evenodd;stroke:#000000;stroke-width:1;stroke-linecap:butt;stroke-linejoin:miter;stroke-miterlimit:0;stroke-dasharray:none;stroke-opacity:1" />
    <path
       style="fill:none;fill-rule:evenodd;stroke:#000000;stroke-width:1;stroke-linecap:butt;stroke-linejoin:miter;stroke-miterlimit:0;stroke-dasharray:none;stroke-opacity:1"
       d="m -217.36412,67.255081 11.94875,3.313551 -8.32303,14.921504 10.96437,13.894222"
       id="path4985"
       inkscape:connector-curvature="0"
       sodipodi:nodetypes="cccc" />
  </g>
</svg>
